{
  "accessors": [
    {
      "bufferView": 2,
      "componentType": 5126,
      "count": 552,
      "max": [
        4.126033306121826,
        1.3973631858825684,
        1.915320634841919
      ],
      "min": [
        -1.8932912349700928,
        -1.3973631858825684,
        -0.39980316162109375
      ],
      "type": "VEC3"
    },
    {
      "bufferView": 2,
      "byteOffset": 6624,
      "componentType": 5126,
      "count": 552,
      "max": [
        0.923840343952179,
        0.9606702327728271,
        0.9992958307266235
      ],
      "min": [
        -0.8952983617782593,
        -0.9606701731681824,
        -0.9789955019950867
      ],
      "type": "VEC3"
    },
    {
      "bufferView": 1,
      "componentType": 5126,
      "count": 552,
      "max": [
        1.0,
        1.0
      ],
      "min": [
        0.0,
        0.0
      ],
      "type": "VEC2"
    },
    {
      "bufferView": 0,
      "componentType": 5125,
      "count": 804,
      "type": "SCALAR"
    },
    {
      "bufferView": 2,
      "byteOffset": 13248,
      "componentType": 5126,
      "count": 170,
      "max": [
        2.855403184890747,
        0.7221707105636597,
        0.36931684613227844
      ],
      "min": [
        -0.7252771854400635,
        -0.7221688628196716,
        -0.6666464805603027
      ],
      "type": "VEC3"
    },
    {
      "bufferView": 2,
      "byteOffset": 15288,
      "componentType": 5126,
      "count": 170,
      "max": [
        0.8778071403503418,
        0.9462087750434875,
        0.3844392001628876
      ],
      "min": [
        -0.9211456775665283,
        -0.9462087750434875,
        -1.0
      ],
      "type": "VEC3"
    },
    {
      "bufferView": 1,
      "byteOffset": 4416,
      "componentType": 5126,
      "count": 170,
      "max": [
        1.0,
        1.0
      ],
      "min": [
        0.0,
        0.0
      ],
      "type": "VEC2"
    },
    {
      "bufferView": 0,
      "byteOffset": 3216,
      "componentType": 5125,
      "count": 264,
      "type": "SCALAR"
    },
    {
      "bufferView": 2,
      "byteOffset": 17328,
      "componentType": 5126,
      "count": 409,
      "max": [
        3.9672813415527344,
        1.3973649740219116,
        1.6229324340820313
      ],
      "min": [
        -1.3999990224838257,
        -1.397361159324646,
        -0.7138277888298035
      ],
      "type": "VEC3"
    },
    {
      "bufferView": 2,
      "byteOffset": 22236,
      "componentType": 5126,
      "count": 409,
      "max": [
        0.9101724028587341,
        0.9957279562950134,
        0.9550002813339233
      ],
      "min": [
        -0.9388059377670288,
        -0.9957278370857239,
        -1.0
      ],
      "type": "VEC3"
    },
    {
      "bufferView": 1,
      "byteOffset": 5776,
      "componentType": 5126,
      "count": 409,
      "max": [
        1.0,
        0.8916404247283936
      ],
      "min": [
        0.0,
        0.0
      ],
      "type": "VEC2"
    },
    {
      "bufferView": 0,
      "byteOffset": 4272,
      "componentType": 5125,
      "count": 603,
      "type": "SCALAR"
    },
    {
      "bufferView": 2,
      "byteOffset": 27144,
      "componentType": 5126,
      "count": 56,
      "max": [
        4.743437767028809,
        0.46354880928993225,
        1.115765929222107
      ],
      "min": [
        3.8884365558624268,
        -0.46851569414138794,
        0.7506849765777588
      ],
      "type": "VEC3"
    },
    {
      "bufferView": 2,
      "byteOffset": 27816,
      "componentType": 5126,
      "count": 56,
      "max": [
        0.8743863105773926,
        0.9656925797462463,
        0.9853407144546509
      ],
      "min": [
        0.06433533132076263,
        -0.9661394953727722,
        -0.9933845400810242
      ],
      "type": "VEC3"
    },
    {
      "bufferView": 1,
      "byteOffset": 9048,
      "componentType": 5126,
      "count": 56,
      "max": [
        0.625,
        0.5
      ],
      "min": [
        0.3749999701976776,
        0.375
      ],
      "type": "VEC2"
    },
    {
      "bufferView": 0,
      "byteOffset": 6684,
      "componentType": 5125,
      "count": 84,
      "type": "SCALAR"
    },
    {
      "bufferView": 2,
      "byteOffset": 28488,
      "componentType": 5126,
      "count": 96,
      "max": [
        3.7367570400238037,
        0.6600046157836914,
        1.439727783203125
      ],
      "min": [
        3.494410991668701,
        -0.6600008010864258,
        1.1728031635284424
      ],
      "type": "VEC3"
    },
    {
      "bufferView": 2,
      "byteOffset": 29640,
      "componentType": 5126,
      "count": 96,
      "max": [
        0.8969249129295349,
        0.9777877926826477,
        0.8943658471107483
      ],
      "min": [
        -0.8969244360923767,
        -0.9777877330780029,
        -0.8943646550178528
      ],
      "type": "VEC3"
    },
    {
      "bufferView": 1,
      "byteOffset": 9496,
      "componentType": 5126,
      "count": 96,
      "max": [
        1.0,
        1.0
      ],
      "min": [
        0.0,
        0.01000000536441803
      ],
      "type": "VEC2"
    },
    {
      "bufferView": 0,
      "byteOffset": 7020,
      "componentType": 5125,
      "count": 168,
      "type": "SCALAR"
    },
    {
      "bufferView": 2,
      "byteOffset": 30792,
      "componentType": 5126,
      "count": 326,
      "max": [
        4.114683151245117,
        0.8352062106132507,
        2.202899694442749
      ],
      "min": [
        2.3267483711242676,
        -0.8363089561462402,
        1.2735600471496582
      ],
      "type": "VEC3"
    },
    {
      "bufferView": 2,
      "byteOffset": 34704,
      "componentType": 5126,
      "count": 326,
      "max": [
        0.8422843217849731,
        0.9395920038223267,
        0.9818936586380005
      ],
      "min": [
        -0.377292662858963,
        -0.9395918846130371,
        -0.9761486053466797
      ],
      "type": "VEC3"
    },
    {
      "bufferView": 1,
      "byteOffset": 10264,
      "componentType": 5126,
      "count": 326,
      "max": [
        0.9103245735168457,
        1.0
      ],
      "min": [
        0.3248276114463806,
        0.0
      ],
      "type": "VEC2"
    },
    {
      "bufferView": 0,
      "byteOffset": 7692,
      "componentType": 5125,
      "count": 462,
      "type": "SCALAR"
    },
    {
      "bufferView": 2,
      "byteOffset": 38616,
      "componentType": 5126,
      "count": 60,
      "max": [
        2.883155345916748,
        0.5904185771942139,
        2.110630989074707
      ],
      "min": [
        2.054385185241699,
        -0.591521143913269,
        1.2493255138397217
      ],
      "type": "VEC3"
    },
    {
      "bufferView": 2,
      "byteOffset": 39336,
      "componentType": 5126,
      "count": 60,
      "max": [
        -0.24249668419361115,
        0.4594535529613495,
        0.9700605869293213
      ],
      "min": [
        -0.8867042064666748,
        -0.4594532549381256,
        -0.08510541915893555
      ],
      "type": "VEC3"
    },
    {
      "bufferView": 1,
      "byteOffset": 12872,
      "componentType": 5126,
      "count": 60,
      "max": [
        0.9060040712356567,
        0.9743695855140686
      ],
      "min": [
        0.0,
        0.4004446268081665
      ],
      "type": "VEC2"
    },
    {
      "bufferView": 0,
      "byteOffset": 9540,
      "componentType": 5125,
      "count": 84,
      "type": "SCALAR"
    }
  ],
  "asset": {
    "extras": {
      "author": "BobbieVR (https://sketchfab.com/BobbieVR)",
      "license": "CC-BY-4.0 (http://creativecommons.org/licenses/by/4.0/)",
      "source": "https://sketchfab.com/3d-models/shuba-duck-dinghy-8d1656825c724d11b596eadbc75f5a21",
      "title": "Shuba Duck Dinghy"
    },
    "generator": "Sketchfab-11.71.0",
    "version": "2.0"
  },
  "bufferViews": [
    {
      "buffer": 0,
      "byteLength": 9876,
      "name": "floatBufferViews",
      "target": 34963
    },
    {
      "buffer": 0,
      "byteLength": 13352,
      "byteOffset": 9876,
      "byteStride": 8,
      "name": "floatBufferViews",
      "target": 34962
    },
    {
      "buffer": 0,
      "byteLength": 40056,
      "byteOffset": 23228,
      "byteStride": 12,
      "name": "floatBufferViews",
      "target": 34962
    }
  ],
  "buffers": [
    {
      "byteLength": 63284,
      "uri": "scene.bin"
    }
  ],
  "materials": [
    {
      "doubleSided": true,
      "name": "shuba.001",
      "pbrMetallicRoughness": {
        "metallicFactor": 0.0,
        "roughnessFactor": 0.7763932022500211
      }
    },
    {
      "doubleSided": true,
      "name": "shuba_2.001",
      "pbrMetallicRoughness": {
        "baseColorFactor": [
          0.165551,
          0.309003,
          1.0,
          1.0
        ],
        "metallicFactor": 0.0,
        "roughnessFactor": 0.9265686259307762
      }
    },
    {
      "doubleSided": true,
      "name": "Hat_3.001",
      "pbrMetallicRoughness": {
        "baseColorFactor": [
          0.102242,
          0.603827,
          0.672443,
          1.0
        ],
        "metallicFactor": 0.0,
        "roughnessFactor": 0.8877171648508062
      }
    },
    {
      "doubleSided": true,
      "name": "shuba_beak.001",
      "pbrMetallicRoughness": {
        "baseColorFactor": [
          0.973446,
          0.658375,
          0.0481719,
          1.0
        ],
        "metallicFactor": 0.0,
        "roughnessFactor": 0.8476561451540074
      }
    },
    {
      "doubleSided": true,
      "name": "shuba_eyes.001",
      "pbrMetallicRoughness": {
        "baseColorFactor": [
          0.0,
          0.0,
          0.0,
          1.0
        ],
        "metallicFactor": 0.0
      }
    },
    {
      "doubleSided": true,
      "name": "Hat_2.001",
      "pbrMetallicRoughness": {
        "baseColorFactor": [
          0.715694,
          0.0497065,
          0.0144439,
          1.0
        ],
        "metallicFactor": 0.0,
        "roughnessFactor": 0.9577943325785994
      }
    },
    {
      "doubleSided": true,
      "name": "hAT.001",
      "pbrMetallicRoughness": {
        "metallicFactor": 0.0,
        "roughnessFactor": 0.7763932022500211
      }
    }
  ],
  "meshes": [
    {
      "name": "Ducc.001_shuba.001_0",
      "primitives": [
        {
          "attributes": {
            "NORMAL": 1,
            "POSITION": 0,
            "TEXCOORD_0": 2
          },
          "indices": 3,
          "material": 0,
          "mode": 4
        }
      ]
    },
    {
      "name": "Ducc.001_shuba 2.001_0",
      "primitives": [
        {
          "attributes": {
            "NORMAL": 5,
            "POSITION": 4,
            "TEXCOORD_0": 6
          },
          "indices": 7,
          "material": 1,
          "mode": 4
        }
      ]
    },
    {
      "name": "Ducc.001_Hat 3.001_0",
      "primitives": [
        {
          "attributes": {
            "NORMAL": 9,
            "POSITION": 8,
            "TEXCOORD_0": 10
          },
          "indices": 11,
          "material": 2,
          "mode": 4
        }
      ]
    },
    {
      "name": "Ducc.001_shuba beak.001_0",
      "primitives": [
        {
          "attributes": {
            "NORMAL": 13,
            "POSITION": 12,
            "TEXCOORD_0": 14
          },
          "indices": 15,
          "material": 3,
          "mode": 4
        }
      ]
    },
    {
      "name": "Ducc.001_shuba eyes.001_0",
      "primitives": [
        {
          "attributes": {
            "NORMAL": 17,
            "POSITION": 16,
            "TEXCOORD_0": 18
          },
          "indices": 19,
          "material": 4,
          "mode": 4
        }
      ]
    },
    {
      "name": "Ducc.001_Hat 2.001_0",
      "primitives": [
        {
          "attributes": {
            "NORMAL": 21,
            "POSITION": 20,
            "TEXCOORD_0": 22
          },
          "indices": 23,
          "material": 5,
          "mode": 4
        }
      ]
    },
    {
      "name": "Ducc.001_hAT.001_0",
      "primitives": [
        {
          "attributes": {
            "NORMAL": 25,
            "POSITION": 24,
            "TEXCOORD_0": 26
          },
          "indices": 27,
          "material": 6,
          "mode": 4
        }
      ]
    }
  ],
  "nodes": [
    {
      "children": [
        1
      ],
      "matrix": [
        1.0,
        0.0,
        0.0,
        0.0,
        0.0,
        2.220446049250313e-16,
        -1.0,
        0.0,
        0.0,
        1.0,
        2.220446049250313e-16,
        0.0,
        0.0,
        0.0,
        0.0,
        1.0
      ],
      "name": "Sketchfab_model"
    },
    {
      "children": [
        2
      ],
      "matrix": [
        0.009999999776482582,
        0.0,
        0.0,
        0.0,
        0.0,
        0.0,
        0.009999999776482582,
        0.0,
        0.0,
        -0.009999999776482582,
        0.0,
        0.0,
        0.0,
        0.0,
        0.0,
        1.0
      ],
      "name": "bb824eb179a74b04ba8cc940acbeb437.fbx"
    },
    {
      "children": [
        3
      ],
      "name": "RootNode"
    },
    {
      "children": [
        4,
        5,
        6,
        7,
        8,
        9,
        10
      ],
      "matrix": [
        24.32198719582095,
        5.005039849159241e-05,
        76.21313639752007,
        0.0,
        95.26641867985767,
        -1.0985308701477301e-05,
        -30.402483414894096,
        0.0,
        -8.555393271603151e-06,
        99.99999999997982,
        -6.294132364192961e-05,
        0.0,
        -1399.1427001953125,
        -271.5001220703125,
        1288.59716796875,
        1.0
      ],
      "name": "Ducc.001"
    },
    {
      "mesh": 0,
      "name": "Ducc.001_shuba.001_0"
    },
    {
      "mesh": 1,
      "name": "Ducc.001_shuba 2.001_0"
    },
    {
      "mesh": 2,
      "name": "Ducc.001_Hat 3.001_0"
    },
    {
      "mesh": 3,
      "name": "Ducc.001_shuba beak.001_0"
    },
    {
      "mesh": 4,
      "name": "Ducc.001_shuba eyes.001_0"
    },
    {
      "mesh": 5,
      "name": "Ducc.001_Hat 2.001_0"
    },
    {
      "mesh": 6,
      "name": "Ducc.001_hAT.001_0"
    }
  ],
  "scene": 0,
  "scenes": [
    {
      "name": "Sketchfab_Scene",
      "nodes": [
        0
      ]
    }
  ]
}
